<mxfile host="app.diagrams.net" modified="2023-06-28T16:40:27.059Z" agent="Mozilla/5.0 (Macintosh; Intel Mac OS X 10_15_7) AppleWebKit/605.1.15 (KHTML, like Gecko) Version/13.1.3 Safari/605.1.15" version="21.5.2" etag="Wd8BbzTXypSpIGDDD39u" type="github">
  <diagram name="Page-1" id="9f4Ix2fSHUe7ESnyEl0W">
    <mxGraphModel>
      <root>
        <mxCell id="0" />
        <mxCell id="1" parent="0" />
      </root>
    </mxGraphModel>
  </diagram>
</mxfile>
